<svg width="276" height="222" viewBox="0 0 276 222" fill="none" xmlns="http://www.w3.org/2000/svg">
<g clip-path="url(#clip0_1_1513)">
<path d="M89.6998 152.438C88.6692 152.438 87.6385 152.589 86.6552 152.908C81.0662 154.725 75.1883 155.891 68.9998 155.891C62.8114 155.891 56.9335 154.725 51.3402 152.908C50.3569 152.589 49.3305 152.438 48.2998 152.438C21.5365 152.438 -0.14247 174.227 -0.000157817 201.049C0.0602172 212.384 9.3709 221.5 20.6998 221.5H117.3C128.629 221.5 137.939 212.384 138 201.049C138.142 174.227 116.463 152.438 89.6998 152.438ZM68.9998 138.625C91.8647 138.625 110.4 120.073 110.4 97.1875C110.4 74.3019 91.8647 55.75 68.9998 55.75C46.135 55.75 27.5998 74.3019 27.5998 97.1875C27.5998 120.073 46.135 138.625 68.9998 138.625ZM255.3 0.5H89.6998C78.2847 0.5 68.9998 10.104 68.9998 21.9051V41.9375C79.0997 41.9375 88.4492 44.864 96.5998 49.6207V28.125H248.4V152.438H220.8V124.812H165.6V152.438H132.721C140.958 159.642 147.004 169.155 149.838 180.062H255.3C266.715 180.062 276 170.458 276 158.657V21.9051C276 10.104 266.715 0.5 255.3 0.5Z" fill="#00A884"/>
</g>
<defs>
<clipPath id="clip0_1_1513">
<rect width="276" height="221" fill="white" transform="translate(0 0.5)"/>
</clipPath>
</defs>
</svg>
