<svg width="23" height="24" viewBox="0 0 23 24" fill="none" xmlns="http://www.w3.org/2000/svg">
<path d="M19.8314 14.4513L21.005 11.5168C21.2014 11.0246 20.8233 10.4996 20.2684 10.4996H17.3956C17.9358 9.61365 18.2698 8.59644 18.2698 7.49953V7.48547C20.1948 7.11983 21.4126 6.59013 21.4126 5.99949C21.4126 5.37603 20.072 4.82289 17.9702 4.45257C17.5184 2.91502 16.6443 1.36811 15.9764 0.571208C15.5099 0.0133796 14.7046 -0.160063 14.0367 0.158696L12.6814 0.80559C12.2394 1.01653 11.7189 1.01653 11.2769 0.80559L9.92154 0.158696C9.25368 -0.160063 8.44832 0.0133796 7.9818 0.571208C7.31886 1.36811 6.43984 2.91502 5.98805 4.45257C3.89118 4.82289 2.55055 5.37603 2.55055 5.99949C2.55055 6.59013 3.76841 7.11983 5.69341 7.48547V7.49953C5.69341 8.59644 6.02734 9.61365 6.56752 10.4996H3.74386C3.17913 10.4996 2.801 11.0481 3.02198 11.545L4.28895 14.3669C2.31975 15.4591 0.979126 17.4701 0.979126 19.7999V21.8999C0.979126 23.0578 1.96618 24 3.17913 24H20.7791C21.9921 24 22.9791 23.0578 22.9791 21.8999V19.7999C22.9791 17.5311 21.7122 15.5623 19.8314 14.4513ZM9.62198 22.5L7.57913 13.4997L10.0148 14.9997L11.1934 16.8748L9.62198 22.5ZM14.3363 22.5L12.7648 16.8748L13.9434 14.9997L16.3791 13.4997L14.3363 22.5ZM16.384 8.50737C16.1925 9.0652 16.0403 9.66053 15.5738 10.073C15.0778 10.509 13.2166 11.1231 12.4309 8.90113C12.2934 8.50737 11.6747 8.50737 11.5323 8.90113C10.6974 11.2543 8.78225 10.4199 8.38939 10.073C7.92288 9.66053 7.76573 9.0652 7.57913 8.50737C7.53984 8.39018 7.26975 8.24018 7.26975 8.23549V7.72922C8.65948 7.89798 10.2653 8.00111 11.984 8.00111C13.7028 8.00111 15.3086 7.90267 16.6983 7.72922V8.23549C16.6934 8.24018 16.4233 8.38549 16.384 8.50737Z" fill="black"/>
</svg>
