<svg width="24" height="24" viewBox="0 0 24 24" fill="none" xmlns="http://www.w3.org/2000/svg">
<path d="M8.28125 2.40576L8 2.96436H4.25C3.55859 2.96436 3 3.52295 3 4.21436C3 4.90576 3.55859 5.46436 4.25 5.46436H19.25C19.9414 5.46436 20.5 4.90576 20.5 4.21436C20.5 3.52295 19.9414 2.96436 19.25 2.96436H15.5L15.2188 2.40576C15.0078 1.97998 14.5742 1.71436 14.1016 1.71436H9.39844C8.92578 1.71436 8.49219 1.97998 8.28125 2.40576ZM19.25 6.71436H4.25L5.07812 19.9565C5.14062 20.9448 5.96094 21.7144 6.94922 21.7144H16.5508C17.5391 21.7144 18.3594 20.9448 18.4219 19.9565L19.25 6.71436Z" fill="#6B7C85"/>
</svg>
