<svg width="26" height="19" viewBox="0 0 26 19" fill="none" xmlns="http://www.w3.org/2000/svg">
<path d="M18.2418 16.3472V18.856H0.680176V16.3472C0.680176 16.3472 0.680176 11.3296 9.46097 11.3296C18.2418 11.3296 18.2418 16.3472 18.2418 16.3472ZM13.8514 4.43044C13.8514 3.5621 13.5939 2.71327 13.1115 1.99127C12.629 1.26927 11.9433 0.706542 11.1411 0.374243C10.3389 0.0419445 9.4561 -0.045 8.60445 0.124404C7.7528 0.293809 6.9705 0.711954 6.35649 1.32596C5.74249 1.93997 5.32434 2.72226 5.15494 3.57392C4.98553 4.42557 5.07248 5.30833 5.40477 6.11058C5.73707 6.91282 6.2998 7.5985 7.0218 8.08093C7.7438 8.56335 8.59264 8.82084 9.46097 8.82084C10.6254 8.82084 11.7421 8.35828 12.5655 7.53492C13.3888 6.71156 13.8514 5.59485 13.8514 4.43044ZM18.1665 11.3296C18.9377 11.9264 19.5686 12.6849 20.0151 13.5518C20.4615 14.4187 20.7126 15.3729 20.7506 16.3472V18.856H25.7682V16.3472C25.7682 16.3472 25.7682 11.7938 18.1665 11.3296ZM16.9874 0.040044C16.124 0.0352362 15.2795 0.293377 14.5664 0.78014C15.3284 1.84479 15.7381 3.12121 15.7381 4.43044C15.7381 5.73968 15.3284 7.01609 14.5664 8.08075C15.2795 8.56751 16.124 8.82565 16.9874 8.82084C18.1518 8.82084 19.2685 8.35828 20.0919 7.53492C20.9152 6.71156 21.3778 5.59485 21.3778 4.43044C21.3778 3.26604 20.9152 2.14932 20.0919 1.32596C19.2685 0.502603 18.1518 0.040044 16.9874 0.040044Z" fill="white"/>
</svg>
