<svg width="277" height="246" viewBox="0 0 277 246" fill="none" xmlns="http://www.w3.org/2000/svg">
<g id="Frame" clip-path="url(#clip0_1_1891)">
<path id="Vector" d="M0.5 31C0.5 14.0855 14.2521 0.333374 31.1667 0.333374H107.833V61.6667C107.833 70.148 114.685 77 123.167 77H184.5V95.4959C149.09 105.51 123.167 138.046 123.167 176.667C123.167 204.985 137.11 229.998 158.481 245.331C156.948 245.571 155.415 245.667 153.833 245.667H31.1667C14.2521 245.667 0.5 231.915 0.5 215V31ZM184.5 61.6667H123.167V0.333374L184.5 61.6667ZM207.5 107.667C225.8 107.667 243.35 114.936 256.29 127.876C269.23 140.816 276.5 158.367 276.5 176.667C276.5 194.967 269.23 212.517 256.29 225.457C243.35 238.397 225.8 245.667 207.5 245.667C189.2 245.667 171.65 238.397 158.71 225.457C145.77 212.517 138.5 194.967 138.5 176.667C138.5 158.367 145.77 140.816 158.71 127.876C171.65 114.936 189.2 107.667 207.5 107.667ZM207.5 222.667C210.55 222.667 213.475 221.455 215.632 219.298C217.788 217.142 219 214.217 219 211.167C219 208.117 217.788 205.192 215.632 203.035C213.475 200.878 210.55 199.667 207.5 199.667C204.45 199.667 201.525 200.878 199.368 203.035C197.212 205.192 196 208.117 196 211.167C196 214.217 197.212 217.142 199.368 219.298C201.525 221.455 204.45 222.667 207.5 222.667ZM207.5 130.667C203.283 130.667 199.833 134.117 199.833 138.333V176.667C199.833 180.883 203.283 184.333 207.5 184.333C211.717 184.333 215.167 180.883 215.167 176.667V138.333C215.167 134.117 211.717 130.667 207.5 130.667Z" fill="#00A884"/>
</g>
<defs>
<clipPath id="clip0_1_1891">
<rect width="276" height="245.333" fill="white" transform="translate(0.5 0.333374)"/>
</clipPath>
</defs>
</svg>
