<svg width="20" height="15" viewBox="0 0 20 15" fill="none" xmlns="http://www.w3.org/2000/svg">
<g clip-path="url(#clip0_672_633)">
<path d="M10 8C11.0609 8 12.0783 7.57857 12.8284 6.82843C13.5786 6.07828 14 5.06087 14 4C14 2.93913 13.5786 1.92172 12.8284 1.17157C12.0783 0.421427 11.0609 0 10 0C8.93913 0 7.92172 0.421427 7.17157 1.17157C6.42143 1.92172 6 2.93913 6 4C6 5.06087 6.42143 6.07828 7.17157 6.82843C7.92172 7.57857 8.93913 8 10 8ZM8.57188 9.5C5.49375 9.5 3 11.9937 3 15.0719C3 15.5844 3.41563 16 3.92813 16H16.0719C16.5844 16 17 15.5844 17 15.0719C17 11.9937 14.5063 9.5 11.4281 9.5H8.57188Z" fill="white"/>
</g>
<defs>
<clipPath id="clip0_672_633">
<rect width="20" height="15.0001" fill="white"/>
</clipPath>
</defs>
</svg>
